<?xml version="1.0" encoding="utf-8"?>
<!-- Generator: Adobe Illustrator 25.2.3, SVG Export Plug-In . SVG Version: 6.00 Build 0)  -->
<svg version="1.1" id="圖層_1" xmlns="http://www.w3.org/2000/svg" xmlns:xlink="http://www.w3.org/1999/xlink" x="0px" y="0px"
	 viewBox="0 0 35 24" style="enable-background:new 0 0 35 24;" xml:space="preserve">
<style type="text/css">
	.st0{fill-rule:evenodd;clip-rule:evenodd;fill:#996949;}
</style>
<g>
	<path class="st0" d="M22,0c-1.1,0-2,0.9-2,2v11c0,1.1,0.9,2,2,2h4.1l2,7.5c0.2,0.9,1,1.5,1.9,1.5h3c1.1,0,2-0.9,2-2V2
		c0-1.1-0.9-2-2-2H22z M2,0C0.9,0,0,0.9,0,2v11c0,1.1,0.9,2,2,2h4.1l2,7.5c0.2,0.9,1,1.5,1.9,1.5h3c1.1,0,2-0.9,2-2V2
		c0-1.1-0.9-2-2-2H2z"/>
</g>
</svg>
